<?xml version="1.0" standalone="no"?>
<!DOCTYPE svg PUBLIC "-//W3C//DTD SVG 20010904//EN"
 "http://www.w3.org/TR/2001/REC-SVG-20010904/DTD/svg10.dtd">
<svg version="1.0" xmlns="http://www.w3.org/2000/svg"
 width="400.000000pt" height="722.000000pt" viewBox="0 0 400.000000 722.000000"
 preserveAspectRatio="xMidYMid meet">
<metadata>
Created by potrace 1.13, written by Peter Selinger 2001-2015
</metadata>
<g transform="translate(0.000000,722.000000) scale(0.100000,-0.100000)"
fill="#000000" stroke="none">
<path d="M2708 7143 c-31 -12 -37 -19 -33 -37 3 -11 21 -124 40 -251 20 -126
56 -349 80 -495 24 -146 49 -301 55 -345 6 -44 36 -231 65 -415 30 -184 70
-437 90 -563 21 -125 34 -234 31 -242 -3 -8 -14 -15 -24 -15 -10 0 -61 -13
-112 -30 -52 -16 -103 -30 -112 -30 -11 0 -23 18 -37 55 -12 31 -21 58 -21 62
0 3 -26 40 -57 83 -77 104 -233 218 -338 247 -69 19 -70 20 -77 59 -4 21 -7
109 -7 194 -1 178 -10 242 -52 393 -42 148 -109 284 -192 390 -38 48 -71 87
-73 87 -2 0 21 -39 52 -87 70 -109 129 -248 156 -373 22 -102 39 -470 22 -470
-5 0 -38 77 -73 170 l-64 171 -136 122 c-152 137 -145 133 -366 247 -88 45
-202 105 -253 133 -51 27 -96 47 -99 44 -3 -3 35 -136 85 -294 84 -268 92
-301 117 -482 14 -106 24 -195 22 -198 -3 -2 -76 34 -163 80 l-159 84 -204 22
-203 21 -232 -35 c-127 -20 -239 -39 -249 -43 -13 -6 18 -36 148 -145 225
-189 559 -500 618 -575 27 -34 45 -62 42 -62 -4 0 -26 13 -49 30 -114 78 -369
175 -538 205 -125 22 -127 16 -5 -10 208 -46 368 -109 537 -214 l75 -46 -75
-6 c-41 -4 -147 -21 -235 -37 -130 -25 -203 -47 -390 -116 -211 -77 -228 -85
-202 -95 15 -6 111 -41 215 -77 196 -70 547 -209 667 -264 l70 -33 -112 -28
c-127 -32 -383 -106 -391 -113 -5 -6 0 -7 178 -41 142 -28 401 -90 435 -104
14 -6 -9 -11 -75 -16 -138 -11 -144 -18 -38 -39 151 -30 301 -76 331 -102 16
-13 36 -24 46 -24 12 0 25 -18 40 -55 29 -69 73 -107 185 -161 88 -42 90 -43
62 -53 -21 -9 -32 -8 -49 4 -23 16 -69 20 -81 8 -4 -5 -34 -8 -66 -8 -54 0
-62 -3 -97 -37 -21 -20 -50 -40 -65 -43 -22 -6 -27 -3 -33 17 -7 23 -59 78
-74 78 -4 0 -13 11 -19 25 -6 14 -17 25 -24 25 -7 0 -33 21 -59 46 l-47 46
-46 -17 c-55 -21 -136 -109 -136 -148 0 -15 16 -42 40 -69 22 -23 40 -49 40
-56 0 -25 33 -62 54 -62 25 0 46 -17 46 -39 0 -8 7 -22 15 -31 12 -14 12 -19
-5 -45 l-19 -29 -10 28 c-6 15 -11 31 -11 36 0 5 -13 21 -28 37 -25 25 -65 88
-96 150 -6 13 -15 23 -19 23 -5 0 -5 -5 -1 -12 4 -7 3 -8 -4 -4 -7 4 -24 31
-38 61 -15 30 -31 52 -35 49 -10 -6 -59 43 -59 59 0 5 -7 7 -15 3 -9 -3 -24 8
-41 29 -14 19 -30 33 -34 30 -5 -3 -18 8 -30 25 -12 17 -27 29 -33 28 -7 -2
-27 8 -46 21 -24 17 -35 20 -40 12 -6 -9 -11 -8 -20 3 -8 10 -27 13 -59 11
-26 -2 -52 1 -59 7 -8 6 -10 3 -6 -11 3 -13 1 -21 -7 -21 -9 0 -11 -10 -6 -30
3 -19 2 -29 -4 -25 -15 9 -12 -12 5 -45 11 -22 12 -30 3 -30 -6 0 1 -13 16
-29 20 -21 24 -30 14 -35 -9 -4 -10 -8 -1 -12 6 -3 23 -15 36 -27 14 -12 44
-35 66 -51 24 -18 37 -33 30 -36 -11 -7 37 -41 96 -68 28 -13 28 -15 10 -22
-18 -8 -17 -10 13 -21 17 -8 32 -19 32 -26 0 -7 5 -13 10 -13 6 0 10 -8 10
-17 0 -9 14 -32 32 -50 19 -20 26 -33 18 -33 -8 0 5 -19 28 -43 39 -40 55 -66
32 -52 -6 3 -10 1 -10 -4 0 -6 4 -11 9 -11 5 0 19 -14 31 -30 26 -37 23 -43
-67 -140 l-58 -63 -3 -72 c-6 -116 46 -263 108 -308 9 -7 21 -32 26 -56 7 -37
14 -46 39 -54 38 -12 83 -54 87 -81 2 -16 12 -22 38 -26 29 -4 41 -14 72 -62
30 -46 70 -84 117 -114 1 -2 -8 -38 -22 -81 -34 -102 -54 -185 -62 -256 -5
-41 -15 -67 -36 -93 -23 -29 -29 -47 -29 -83 0 -36 -8 -58 -33 -96 -45 -67
-53 -93 -68 -226 -7 -63 -18 -127 -26 -142 -18 -36 -8 -106 24 -170 15 -31 22
-56 17 -70 -3 -12 -37 -85 -75 -161 -38 -77 -69 -152 -69 -168 0 -41 22 -70
89 -117 l59 -41 101 0 c92 0 105 3 173 34 118 54 133 93 109 281 -12 89 -11
90 111 87 l105 -4 81 88 c61 65 82 94 82 114 0 15 8 34 17 41 9 8 58 60 110
117 89 99 93 106 93 149 0 34 6 53 25 75 14 16 25 40 25 53 0 25 54 75 81 75
21 0 40 -36 56 -104 27 -119 123 -251 201 -277 24 -8 32 -16 32 -34 0 -17 13
-33 44 -55 25 -16 49 -30 55 -30 7 0 11 -25 11 -64 0 -39 5 -67 13 -73 20 -16
216 -81 281 -94 33 -6 143 -12 245 -13 176 -1 188 0 229 22 56 30 56 57 1 106
-53 49 -123 93 -236 149 -50 26 -95 51 -98 58 -4 6 7 25 24 43 35 37 50 112
51 257 0 85 -1 89 -55 200 -30 63 -55 121 -55 129 0 8 -20 74 -45 145 -25 72
-45 147 -45 168 0 23 -8 49 -19 63 -10 13 -22 45 -26 70 -3 25 -17 78 -30 118
-24 70 -24 71 -4 85 39 28 22 81 -41 122 l-25 17 25 27 c16 17 24 35 22 52 -2
16 5 34 19 49 l23 24 -17 73 c-10 39 -17 77 -17 84 0 8 21 2 58 -15 42 -19 77
-27 133 -30 67 -4 83 -1 133 24 31 15 74 42 95 61 22 18 44 33 50 33 12 0 92
49 101 62 3 3 21 3 39 -1 25 -5 37 -14 42 -31 5 -14 47 -268 94 -565 125 -789
223 -1398 253 -1580 l27 -160 73 1 c102 1 106 6 87 115 -8 47 -47 286 -85 530
-117 737 -197 1242 -234 1472 l-35 217 20 35 c12 21 18 42 14 54 -3 11 1 34
10 52 10 18 14 41 11 55 -4 15 0 34 10 50 14 20 15 32 7 58 -6 20 -7 40 -2 47
15 24 10 75 -9 92 -13 12 -37 17 -76 17 -36 0 -58 4 -61 13 -5 15 -136 843
-138 875 -2 22 11 28 167 79 108 35 165 58 155 63 -8 4 -93 31 -190 60 l-177
52 -12 77 c-6 42 -14 88 -17 102 -5 25 3 29 176 109 100 46 181 86 181 90 0 3
-80 16 -177 29 -237 31 -220 25 -228 74 -3 23 -9 57 -12 75 l-5 32 63 2 64 1
-65 6 -65 6 -132 825 c-184 1153 -234 1462 -240 1488 -4 19 -11 22 -52 21 -25
0 -63 -7 -83 -16z m342 -2387 c0 -7 3 -28 6 -45 l7 -31 -144 0 c-87 0 -139 4
-133 9 15 15 206 80 237 80 16 1 27 -4 27 -13z m-1421 -476 c-5 -52 -7 -119
-3 -149 l7 -54 -39 23 c-22 13 -46 29 -54 36 -8 7 -32 15 -52 18 -32 5 -40 2
-62 -25 -14 -17 -26 -36 -26 -42 1 -26 42 -59 102 -84 35 -14 80 -34 101 -44
35 -19 37 -22 37 -69 0 -28 4 -50 8 -50 5 0 18 14 31 30 l22 30 59 -45 c59
-46 59 -46 54 -89 -4 -25 -1 -52 5 -65 20 -37 71 -21 71 22 0 16 2 17 15 7 9
-7 18 -10 21 -7 9 9 -32 71 -104 160 l-64 78 29 37 c46 61 227 263 283 317
l52 50 -24 -40 c-46 -75 -105 -202 -133 -284 -32 -97 -28 -120 5 -29 40 110
181 368 201 368 10 0 15 -230 9 -382 l-6 -137 -79 -76 c-46 -44 -71 -73 -59
-70 13 3 27 -2 39 -15 10 -11 24 -20 31 -20 19 0 44 40 44 71 0 23 12 31 118
82 65 32 126 57 136 57 45 0 47 -148 3 -223 -30 -51 -64 -76 -113 -84 -19 -3
-37 -9 -39 -14 -8 -11 65 1 96 17 36 18 75 66 90 111 14 43 18 135 6 175 -6
23 -3 29 23 41 30 15 30 15 24 -10 -8 -29 -8 -29 65 20 37 25 43 27 37 11 -4
-10 -15 -48 -23 -84 -99 -415 -103 -428 -158 -479 -46 -42 -180 -111 -305
-156 -101 -36 -178 -32 -310 20 -113 43 -227 100 -256 126 -34 31 -59 100
-123 335 -34 121 -61 223 -61 227 0 4 23 -8 52 -27 29 -20 53 -34 55 -32 2 2
-10 39 -28 82 -33 82 -59 168 -59 195 0 26 108 137 184 188 39 27 72 48 73 47
1 -1 -2 -44 -8 -96z m921 -139 c-3 -60 -8 -113 -12 -117 -5 -4 -8 -2 -8 4 0
20 -77 5 -136 -27 l-58 -31 25 27 c13 16 48 53 76 84 29 32 65 82 80 113 15
31 30 56 33 56 3 0 3 -49 0 -109z m245 -149 c10 -64 -59 -245 -130 -337 -92
-120 -165 -173 -149 -107 4 15 10 28 15 30 4 2 27 16 51 32 56 37 90 96 82
140 -8 37 -24 46 -54 30 -29 -15 -31 -11 -14 29 11 26 17 32 26 23 18 -18 30
-14 19 7 -9 15 -1 29 41 77 28 33 55 61 59 62 14 6 10 -70 -6 -123 -18 -62
-13 -69 10 -13 11 25 19 74 20 118 3 87 2 83 14 76 5 -4 12 -23 16 -44z
m-1609 -45 c0 -42 8 -79 23 -115 27 -60 39 -64 17 -6 -19 52 -25 95 -17 117 6
15 15 9 60 -42 42 -49 51 -65 45 -83 -6 -21 -5 -21 10 -9 20 17 32 7 42 -34 7
-27 6 -29 -9 -17 -9 8 -26 12 -39 10 -18 -2 -24 -10 -26 -38 -4 -47 29 -95 93
-138 45 -30 79 -82 53 -82 -20 0 -84 58 -144 132 -44 55 -72 103 -95 161 -32
82 -47 171 -35 203 11 30 21 4 22 -59z m1999 -49 c11 -47 34 -212 31 -215 -3
-3 -264 59 -361 86 l-30 8 28 12 c16 6 63 12 105 13 l77 1 -58 6 -59 6 119 52
c65 28 124 51 130 52 7 1 15 -9 18 -21z m77 -478 c20 -124 40 -239 43 -257 5
-30 3 -34 -43 -57 -31 -16 -55 -37 -67 -60 -14 -25 -26 -36 -42 -36 -13 0 -33
-11 -44 -24 -12 -13 -36 -27 -54 -30 -21 -4 -36 -14 -40 -26 -3 -11 -17 -28
-31 -39 l-25 -20 -60 44 c-33 24 -77 52 -99 61 -28 13 -40 24 -40 39 0 11 -20
50 -44 86 -52 77 -66 83 -243 100 -69 6 -124 18 -161 33 l-55 23 72 38 c88 46
145 103 161 161 9 31 18 44 31 44 9 0 31 11 47 25 41 34 200 72 427 100 105
12 199 22 210 21 17 -1 23 -23 57 -226z m-1107 -266 c-7 -59 7 -70 18 -14 8
37 18 37 84 3 73 -39 98 -91 91 -200 -4 -67 -11 -90 -48 -165 l-44 -87 -38 28
c-88 65 -230 187 -255 219 l-26 34 44 -4 c24 -3 53 -8 64 -13 19 -7 19 -7 3
10 -12 13 -37 20 -78 23 l-60 4 -81 86 c-75 79 -80 87 -63 99 21 15 38 17 29
3 -3 -5 -1 -10 4 -10 6 0 11 7 11 15 0 19 7 19 61 -1 80 -28 160 -22 288 25 2
0 0 -24 -4 -55z m1218 -130 c6 -31 5 -41 -8 -49 -47 -28 -50 -33 -39 -52 8
-12 22 -17 44 -15 39 3 37 -21 -3 -26 -33 -4 -77 37 -77 72 0 14 -5 28 -12 32
-8 5 -9 -4 -4 -35 4 -28 3 -40 -4 -36 -5 3 -10 1 -10 -5 0 -6 15 -17 33 -25
55 -23 73 -58 51 -100 -12 -24 -12 -26 1 -22 16 7 21 -6 30 -80 7 -57 6 -59
-28 -42 -31 16 -57 50 -57 77 0 17 -9 27 -34 37 -57 24 -77 63 -78 150 0 100
27 159 86 186 41 18 41 18 71 -5 19 -15 32 -37 38 -62z m245 30 c25 -17 29
-51 9 -78 -20 -27 -108 -34 -142 -12 -34 22 -36 82 -2 96 36 14 111 11 135 -6z
m-2262 -21 c9 -10 39 -63 66 -118 44 -91 49 -108 49 -170 0 -127 -64 -277 -96
-225 -4 6 5 26 20 45 37 50 22 43 -45 -17 -31 -29 -100 -77 -153 -107 -98 -55
-120 -74 -54 -46 44 18 51 10 42 -51 -7 -51 -37 -85 -134 -150 -77 -52 -120
-57 -169 -21 -75 55 -112 147 -112 275 l0 77 103 120 c56 65 132 144 169 175
37 30 87 82 111 116 59 81 102 114 149 114 21 0 44 -7 54 -17z m1490 -99 c32
-19 68 -44 78 -54 19 -19 19 -20 1 -60 -10 -22 -15 -43 -12 -47 4 -3 7 0 7 9
0 16 66 98 79 98 5 0 11 -20 14 -44 11 -81 57 -173 110 -222 l48 -46 -40 -38
c-73 -70 -191 -89 -308 -49 -66 22 -85 38 -100 85 -9 24 -6 45 14 105 18 58
24 99 26 186 1 72 6 113 13 113 5 0 37 -16 70 -36z m-406 -326 c0 -28 19 -60
32 -52 7 4 8 3 4 -4 -4 -6 -14 -8 -23 -5 -14 5 -15 0 -8 -43 4 -27 9 -52 12
-56 2 -5 24 -8 49 -8 42 0 44 -1 44 -30 0 -18 -6 -33 -15 -36 -23 -9 -76 27
-109 73 -24 35 -30 55 -34 116 l-4 75 26 -5 c17 -4 26 -12 26 -25z m-952 -425
c37 -48 52 -77 52 -100 -1 -17 -2 -17 -15 1 -8 11 -17 17 -21 14 -3 -4 11 -30
30 -59 26 -36 35 -58 30 -73 -9 -32 -35 -48 -68 -42 -27 6 -28 5 -13 -11 23
-27 5 -53 -38 -53 -25 0 -33 -4 -29 -14 6 -15 -21 -46 -41 -46 -7 0 -26 -7
-42 -16 -57 -33 -156 24 -204 118 -25 49 -25 52 15 66 37 14 157 149 180 203
20 47 23 49 82 49 49 0 54 -3 82 -37z m1275 -323 c11 -47 29 -94 39 -106 12
-14 18 -36 18 -68 0 -30 13 -82 34 -140 19 -50 38 -109 42 -131 4 -22 32 -89
61 -150 59 -119 63 -149 31 -225 -15 -34 -15 -33 -10 40 4 73 3 77 -43 170
-26 52 -54 117 -62 144 -8 27 -32 90 -54 140 -33 75 -39 98 -34 132 5 34 2 45
-18 66 -19 21 -26 42 -31 99 -4 40 -11 95 -17 122 -5 28 -9 52 -8 56 2 17 34
-74 52 -149z m265 -1158 l23 -18 -78 -54 -78 -54 -98 17 c-54 9 -117 26 -140
37 -23 11 -33 18 -22 16 11 -3 54 -7 96 -11 l77 -6 68 46 c38 26 70 51 72 55
4 11 51 -6 80 -28z m-1892 -262 c64 -22 102 -23 209 -8 34 5 32 -50 -4 -89
-34 -37 -48 -39 -111 -17 -35 13 -139 23 -242 24 -4 0 -15 11 -23 24 -15 23
-14 27 15 80 l32 56 29 -24 c15 -13 58 -34 95 -46z"/>
</g>
</svg>
